Coordinates
version=1
nRows=11
nColumns=63
inDegrees=yes

Units are S.I. units (second, meters, Newtons, ...)
If the header above contains a line with 'inDegrees', this indicates whether rotational values are in degrees (yes) or radians (no).

endheader
time	pelvis_tilt	pelvis_list	pelvis_rotation	pelvis_tx	pelvis_ty	pelvis_tz	hip_flexion_r	hip_adduction_r	hip_rotation_r	knee_angle_r	knee_angle_r_beta	ankle_angle_r	subtalar_angle_r	mtp_angle_r	hip_flexion_l	hip_adduction_l	hip_rotation_l	knee_angle_l	knee_angle_l_beta	ankle_angle_l	subtalar_angle_l	mtp_angle_l	L5_S1_Flex_Ext	L5_S1_Lat_Bending	L5_S1_axial_rotation	L4_L5_Flex_Ext	L4_L5_Lat_Bending	L4_L5_axial_rotation	L3_L4_Flex_Ext	L3_L4_Lat_Bending	L3_L4_axial_rotation	L2_L3_Flex_Ext	L2_L3_Lat_Bending	L2_L3_axial_rotation	L1_L2_Flex_Ext	L1_L2_Lat_Bending	L1_L2_axial_rotation	L1_T12_Flex_Ext	L1_T12_Lat_Bending	L1_T12_axial_rotation	Abs_r3	Abs_r2	Abs_r1	Abs_t1	Abs_t2	neck_flexion	neck_bending	neck_rotation	arm_flex_r	arm_add_r	arm_rot_r	elbow_flex_r	pro_sup_r	wrist_flex_r	wrist_dev_r	arm_flex_l	arm_add_l	arm_rot_l	elbow_flex_l	pro_sup_l	wrist_flex_l	wrist_dev_l
3.101695	-2.990358	-4.485868	82.180448	0.107278	1.042832	0.317866	6.238729	-3.063549	-13.612614	15.343274	0.267791	36.637773	18.621870	0.000000	6.208835	1.392126	-5.164220	14.122633	0.246486	31.810102	5.451028	0.000000	0.202434	-0.189800	1.071945	0.375941	-0.252434	1.138941	0.332580	-0.461479	1.138941	0.231362	-0.461479	0.937951	0.187981	-0.387039	0.870955	0.115671	-0.294000	0.803958	1.445969	-2.147052	5.961834	0.000000	0.000000	1.333506	7.956399	-14.060150	-94.375922	-84.970017	-31.339427	10.119606	9.931217	0.670842	-5.848001	-13.254907	-94.964921	10.574947	5.101372	76.253043	-9.090967	-5.385079
3.118644	-2.981156	-4.504580	82.173032	0.107259	1.042748	0.317689	6.234389	-3.054618	-13.641349	15.343638	0.267797	36.651176	18.619100	0.000000	6.208022	1.399916	-4.960152	14.123028	0.246493	31.813302	5.224292	0.000000	0.204640	-0.196903	1.102853	0.380037	-0.261881	1.171781	0.336203	-0.478750	1.171781	0.233883	-0.478750	0.964996	0.190029	-0.401525	0.896068	0.116931	-0.305003	0.827139	1.461724	-2.227408	6.133736	0.000000	0.000000	1.578269	8.260999	-14.667236	-92.923070	-84.741482	-30.049588	10.116865	9.827322	0.610385	-5.392054	-14.277214	-95.453554	13.525961	5.124837	77.126411	-9.814334	-4.567335
3.135593	-2.977588	-4.518228	82.168868	0.107314	1.042662	0.317584	6.229128	-3.044405	-13.658965	15.336327	0.267669	36.667219	18.609660	0.000000	6.222620	1.392135	-4.904079	14.141467	0.246815	31.895817	5.177876	0.000000	0.204430	-0.205708	1.147620	0.379648	-0.273591	1.219346	0.335859	-0.500158	1.219346	0.233644	-0.500158	1.004168	0.189834	-0.419479	0.932441	0.116812	-0.318641	0.860715	1.460226	-2.327006	6.382718	0.000000	0.000000	1.799777	8.549689	-15.306901	-91.341287	-84.456347	-28.209972	10.062286	9.491463	0.633177	-5.145852	-16.474545	-96.011719	14.910551	5.142503	78.050550	-10.582702	-3.811768
3.152542	-2.975431	-4.530197	82.171438	0.107398	1.042547	0.317533	6.229113	-3.033068	-13.671936	15.329762	0.267555	36.697208	18.600731	0.000000	6.255140	1.364094	-5.018796	14.178046	0.247454	32.073928	5.343008	0.000000	0.202776	-0.213921	1.190462	0.376575	-0.284515	1.264866	0.333140	-0.520127	1.264866	0.231752	-0.520127	1.041655	0.188297	-0.436227	0.967251	0.115866	-0.331363	0.892847	1.448406	-2.419915	6.620995	0.000000	0.000000	1.990471	8.770342	-15.867946	-90.236694	-84.191745	-26.782475	10.034948	9.215582	0.689587	-5.032501	-18.301410	-96.582888	17.028588	5.239321	78.448024	-11.408836	-3.046026
3.169492	-2.974136	-4.553193	82.218200	0.107458	1.042388	0.317503	6.234661	-3.021296	-13.724685	15.310718	0.267222	36.746454	18.596816	0.000000	6.323986	1.320099	-5.246995	14.242394	0.248577	32.327294	5.680629	0.000000	0.202873	-0.221136	1.225298	0.376755	-0.294111	1.301880	0.333300	-0.537671	1.301880	0.231863	-0.537671	1.072136	0.188388	-0.450941	0.995555	0.115921	-0.342540	0.918974	1.449100	-2.501538	6.814742	0.000000	0.000000	2.143322	8.918596	-16.362340	-89.240031	-83.889734	-26.185799	10.065346	9.751661	0.703560	-5.052174	-20.439734	-97.173284	19.068773	5.354735	78.385323	-12.293568	-2.361330
3.186441	-2.970977	-4.571502	82.265987	0.107535	1.042213	0.317507	6.237186	-3.004506	-13.766839	15.283936	0.266755	36.795162	18.588828	0.000000	6.397270	1.266141	-5.557734	14.311108	0.249776	32.615083	6.095815	0.000000	0.202420	-0.226677	1.261449	0.375914	-0.301480	1.340289	0.332556	-0.551141	1.340289	0.231346	-0.551141	1.103767	0.187967	-0.462239	1.024927	0.115663	-0.351122	0.946086	1.445865	-2.564210	7.015798	0.000000	0.000000	2.263698	9.010091	-16.769594	-88.743965	-83.619187	-25.491343	10.064841	9.762771	0.807268	-5.223014	-22.956310	-97.762244	20.360079	5.488587	78.469525	-13.208067	-1.710387
3.203390	-2.968739	-4.580322	82.320668	0.107613	1.042026	0.317539	6.233566	-2.989786	-13.809603	15.260204	0.266341	36.850853	18.577728	0.000000	6.469933	1.211256	-5.910776	14.389147	0.251138	32.896902	6.537003	0.000000	0.200703	-0.231011	1.295117	0.372725	-0.307244	1.376061	0.329734	-0.561679	1.376061	0.229383	-0.561679	1.133227	0.186372	-0.471077	1.052282	0.114681	-0.357836	0.971337	1.433598	-2.613239	7.203049	0.000000	0.000000	2.371000	9.052407	-17.104059	-88.619524	-83.362572	-25.075641	10.077604	9.706342	0.926160	-5.493584	-25.674787	-98.319577	20.966680	5.620939	78.510048	-14.085013	-1.222693
3.220339	-2.960683	-4.587991	82.354673	0.107708	1.041829	0.317574	6.232555	-2.967269	-13.827178	15.235945	0.265917	36.911409	18.563969	0.000000	6.534605	1.142503	-6.356874	14.460917	0.252391	33.156210	7.064442	0.000000	0.199898	-0.232738	1.327199	0.371230	-0.309542	1.410149	0.328412	-0.565880	1.410149	0.228463	-0.565880	1.161299	0.185625	-0.474600	1.078349	0.114222	-0.360512	0.995399	1.427851	-2.632783	7.381482	0.000000	0.000000	2.447385	9.033376	-17.345419	-88.856967	-83.124877	-25.222178	10.134834	9.792757	1.044613	-5.791301	-28.286836	-98.825181	21.628499	5.785788	77.968865	-14.864961	-0.882318
3.237288	-2.975083	-4.587829	82.393349	0.107847	1.041644	0.317627	6.229718	-2.966499	-13.840859	15.215742	0.265565	36.995245	18.546032	0.000000	6.584957	1.105993	-6.734470	14.513009	0.253300	33.324643	7.486708	0.000000	0.198544	-0.237987	1.354732	0.368716	-0.316522	1.439403	0.326187	-0.578641	1.439403	0.226916	-0.578641	1.185391	0.184368	-0.485303	1.100720	0.113448	-0.368641	1.016049	1.418178	-2.692154	7.534613	0.000000	0.000000	2.520058	9.041098	-17.581975	-88.742376	-82.924144	-24.879597	10.154423	9.647510	1.170580	-6.079361	-30.478443	-99.278721	21.638231	5.980172	77.360582	-15.455921	-0.721264
3.254237	-2.982229	-4.590989	82.436979	0.107941	1.041473	0.317682	6.230479	-2.960491	-13.856923	15.194653	0.265197	37.089743	18.531347	0.000000	6.632197	1.074961	-7.022929	14.557363	0.254074	33.427039	7.797176	0.000000	0.198456	-0.241588	1.377074	0.368553	-0.321313	1.463141	0.326044	-0.587398	1.463141	0.226816	-0.587398	1.204939	0.184287	-0.492647	1.118872	0.113398	-0.374220	1.032805	1.417554	-2.732897	7.658871	0.000000	0.000000	2.587547	9.042972	-17.787967	-88.682351	-82.740016	-24.750310	10.176686	9.566112	1.285168	-6.328659	-32.576976	-99.627803	20.737589	6.116551	76.810653	-15.879486	-0.737219
3.271186	-2.972120	-4.586465	82.464899	0.107965	1.041348	0.317763	6.228181	-2.941586	-13.856193	15.177202	0.264892	37.196370	18.522082	0.000000	6.658360	1.040262	-7.262928	14.580690	0.254481	33.472349	8.027646	0.000000	0.197060	-0.241877	1.397623	0.365959	-0.321696	1.484975	0.323749	-0.588099	1.484975	0.225219	-0.588099	1.222920	0.182990	-0.493235	1.135569	0.112600	-0.374667	1.048217	1.407577	-2.736158	7.773160	0.000000	0.000000	2.638338	9.034498	-17.958312	-88.860293	-82.582419	-24.960890	10.217087	9.466607	1.378854	-6.504353	-34.464249	-99.824663	18.871994	6.185855	76.087890	-16.051131	-0.858171
